#!OML:ASF C:\ViconDB\ViconDB\414\Spring2016\041811\Spring2016.ASF
:FULLY-SPECIFIED
:DEGREES
155
root 8.21241 17.3562 -20.7732 -177.367 -9.75572 172.32
lowerback 10.3278 -2.26068 -7.22118
upperback 2.62864 -4.3953 -4.09698
thorax -2.84229 -2.35484 0.335242
lowerneck -13.8317 -5.34615 -18.202
upperneck 10.5315 -8.27475 25.0306
head 7.45211 -3.39227 10.7815
rclavicle -1.82882e-014 6.36111e-015
rhumerus -72.8793 1.58737 -90.7519
rradius 75.913
rwrist 14.3095
rhand -30.9139 -12.9588
rfingers 7.12502
rthumb -4.2 -42.8971
lclavicle -1.82882e-014 6.36111e-015
lhumerus -30.7565 -28.8867 98.8153
lradius 97.3
lwrist -24.4738
lhand -37.8893 7.90693
lfingers 7.12502
lthumb -10.9325 37.6023
rfemur -44.4225 -23.0811 6.44561
rtibia 108.884
rfoot -154.807 -0.900302
rtoes -12.2089
lfemur -4.48175 -3.1325 -29.6003
ltibia 40.2228
lfoot -25.7995 -8.83667
ltoes -17.5639
156
root 8.24684 17.4172 -21.2749 -177.191 -9.98592 172.679
lowerback 10.0179 -2.78584 -7.30225
upperback 2.45112 -5.00517 -3.66547
thorax -2.77371 -2.63039 0.879909
lowerneck -13.9484 -5.14701 -18.1652
upperneck 10.7343 -7.92953 24.6959
head 7.42886 -3.2226 10.6966
rclavicle -6.03311e-014 -6.36111e-015
rhumerus -74.5617 2.57728 -91.0164
rradius 77.2635
rwrist 15.0707
rhand -30.6891 -12.3725
rfingers 7.12502
rthumb -3.98292 -42.315
lclavicle -6.03311e-014 -6.36111e-015
lhumerus -29.391 -30.2264 98.4806
lradius 99.9885
lwrist -23.167
lhand -38.5947 8.72884
lfingers 7.12502
lthumb -11.6128 38.3871
rfemur -46.6045 -21.0575 8.50884
rtibia 105.829
rfoot -156.125 -1.86205
rtoes -12.0785
lfemur -2.04152 -4.15615 -28.9913
ltibia 38.4383
lfoot -24.7687 -8.25128
ltoes -19.0825
157
root 8.27925 17.4973 -21.7916 -177.072 -10.0087 173.146
lowerback 9.74616 -3.21846 -7.16008
upperback 2.16576 -5.47923 -3.26683
thorax -2.86136 -2.83124 1.25534
lowerneck -13.9856 -5.92194 -17.8429
upperneck 11.5185 -7.48733 24.1382
head 7.58697 -2.30241 10.5928
rclavicle -5.59579e-014 -6.36111e-015
rhumerus -76.2092 3.14845 -91.166
rradius 78.69
rwrist 14.6983
rhand -30.3081 -11.5917
rfingers 7.12502
rthumb -3.61501 -41.5408
lclavicle -5.59579e-014 -6.36111e-015
lhumerus -28.7325 -31.7315 98.1763
lradius 102.634
lwrist -21.3907
lhand -39.295 9.26854
lfingers 7.12502
lthumb -12.2881 38.8875
rfemur -48.1609 -18.7357 10.365
rtibia 102.057
rfoot -157.754 -2.88719
rtoes -11.6584
lfemur 0.536188 -5.09401 -28.3252
ltibia 36.475
lfoot -23.4112 -7.50012
ltoes -20.1778
158
root 8.31317 17.5842 -22.321 -176.93 -9.62215 173.426
lowerback 9.43176 -3.49168 -7.42205
upperback 1.7957 -5.78113 -2.78736
thorax -2.97405 -2.94078 1.91372
lowerneck -14.1745 -5.70714 -17.7285
upperneck 12.2627 -7.22476 23.4522
head 7.74616 -2.21817 10.3671
rclavicle 2.38542e-014 -3.18055e-015
rhumerus -77.7412 3.54088 -91.1112
rradius 79.9329
rwrist 13.703
rhand -30.7281 -10.1573
rfingers 7.12502
rthumb -4.02056 -40.0991
lclavicle 2.38542e-014 -3.18055e-015
lhumerus -28.5554 -33.1607 97.9627
lradius 105.156
lwrist -19.7705
lhand -39.9452 10.0468
lfingers 7.12502
lthumb -12.9149 39.6271
rfemur -49.2448 -16.2553 11.745
rtibia 97.7061
rfoot -159.364 -4.11035
rtoes -11.3887
lfemur 3.19628 -5.86971 -28.004
ltibia 34.3756
lfoot -21.553 -6.61394
ltoes -20.8626
